<svg xmlns="http://www.w3.org/2000/svg" viewBox="0 0 12.429 15.95"><defs><style>.a{opacity:0.87;}</style></defs><path class="a" d="M46.118,4.648a.326.326,0,0,0-.326-.326H44.8a4.936,4.936,0,0,0-9.795,0h-.991a.326.326,0,0,0-.326.326,6.222,6.222,0,0,0,5.888,6.206v3.935c-2.213.045-3.957.548-3.957,1.161h8.566c0-.614-1.744-1.116-3.957-1.161V10.854A6.222,6.222,0,0,0,46.118,4.648ZM42.887,5.71a.326.326,0,0,1,.071.456l-.922,1.261a.326.326,0,1,1-.527-.385l.922-1.261A.326.326,0,0,1,42.887,5.71Zm-.375-.994L40.53,7.427A.326.326,0,1,1,40,7.042l1.982-2.711a.326.326,0,1,1,.527.385Zm-4.16,2.621,3.587-4.906a.326.326,0,1,1,.527.385L38.878,7.722a.326.326,0,1,1-.527-.385ZM39.9,10.21a5.57,5.57,0,0,1-5.553-5.236h.617a4.936,4.936,0,0,0,9.872,0h.617A5.569,5.569,0,0,1,39.9,10.21Z" transform="translate(-33.689)"/></svg>