<svg xmlns="http://www.w3.org/2000/svg" viewBox="0 0 11.444 15.95"><defs><style>.a{opacity:0.87;}</style></defs><g transform="translate(0)"><path class="a" d="M13.1,0a9.143,9.143,0,0,1-2.732,1.786C-.138,5.588,4.295,13,4.439,13.02a6.049,6.049,0,0,1,1.385-1.612C10.877,7.695,11.9,3.42,11.9,3.42a15.34,15.34,0,0,1-5.628,8.345c-.993.707-1.665,2.446-1.949,4.185,0,0,.7-.284,1.006-.361a5.6,5.6,0,0,1,.782-2.166,7.446,7.446,0,0,0,8.607-6.079A10.9,10.9,0,0,0,13.1,0Z" transform="translate(-3.39 0)"/></g></svg>