<svg xmlns="http://www.w3.org/2000/svg" viewBox="0 0 17.288 15.254"><defs><style>.a{opacity:0.87;}</style></defs><g class="a" transform="translate(0 -1.412)"><path d="M7.6,18.244H3.649a.391.391,0,0,0,0,.782H7.6a.391.391,0,0,0,0-.782Z" transform="translate(-0.911 -4.708)"/><path d="M15.8,18.244h-3.95a.391.391,0,0,0,0,.782H15.8a.391.391,0,0,0,0-.782Z" transform="translate(-3.204 -4.708)"/><path d="M13.505,4.67H3.649a.391.391,0,1,0,0,.782h9.856a.391.391,0,1,0,0-.782Z" transform="translate(-0.911 -0.911)"/><path d="M15.8,7.385h-3.95a.391.391,0,0,0,0,.782H15.8a.391.391,0,0,0,0-.782Z" transform="translate(-3.204 -1.67)"/><path d="M15.8,10.1h-3.95a.391.391,0,0,0,0,.782H15.8a.391.391,0,0,0,0-.782Z" transform="translate(-3.204 -2.43)"/><path d="M15.8,12.814h-3.95a.391.391,0,0,0,0,.782H15.8a.391.391,0,0,0,0-.782Z" transform="translate(-3.204 -3.189)"/><path d="M15.8,15.529h-3.95a.391.391,0,1,0,0,.782H15.8a.391.391,0,0,0,0-.782Z" transform="translate(-3.204 -3.948)"/><path d="M7.6,15.529H3.649a.391.391,0,1,0,0,.782H7.6a.391.391,0,1,0,0-.782Z" transform="translate(-0.911 -3.948)"/><path d="M7.6,7.385H3.649a.391.391,0,0,0-.391.391v3.95a.391.391,0,0,0,.391.391H7.6a.391.391,0,0,0,.391-.391V7.776A.391.391,0,0,0,7.6,7.385Zm-.391,3.95H4.04V8.167H7.208Z" transform="translate(-0.911 -1.67)"/><path d="M16.506,3.367H15.332V2.194a.783.783,0,0,0-.782-.782H.782A.783.783,0,0,0,0,2.194V14.71a1.958,1.958,0,0,0,1.956,1.956H15.332a1.958,1.958,0,0,0,1.956-1.956V4.15A.783.783,0,0,0,16.506,3.367Zm0,11.343a1.175,1.175,0,0,1-1.173,1.173H1.956A1.175,1.175,0,0,1,.782,14.71V2.194H14.55V14.123a.979.979,0,0,0,.978.978.391.391,0,0,0,0-.782.2.2,0,0,1-.2-.2V4.15h1.173Z"/></g></svg>