<svg xmlns="http://www.w3.org/2000/svg" viewBox="0 0 19 19"><defs><style>.a{fill:#fff;}</style></defs><path class="a" d="M17.789,0H1.213A1.213,1.213,0,0,0,0,1.212V17.788A1.213,1.213,0,0,0,1.213,19H17.788A1.213,1.213,0,0,0,19,17.788V1.212A1.21,1.21,0,0,0,17.789,0ZM15.761,11.578c.347.354,1.1.948.964,1.553-.126.555-.955.353-1.759.385a2.664,2.664,0,0,1-2.015-.385,6.122,6.122,0,0,1-.662-.739c-.227-.252-.512-.7-.9-.686-.7.035-.48,1.008-.728,1.672-3.883.611-5.442-1.787-6.818-4.115A35.266,35.266,0,0,1,2.212,5.713L4.958,5.7s.881,1.6,1.114,2.015a10.044,10.044,0,0,0,.642.944c.189.26.488.77.815.728.532-.068.629-2.133.3-2.825-.131-.28-.446-.378-.772-.473.11-.695,3.08-.839,3.56-.3.7.783-.483,2.963.472,3.6,1.341-.7,2.486-3.644,2.486-3.644l3.215.02a10.3,10.3,0,0,1-1.03,2.3c-.307.413-1.326,1.333-1.286,2.015C14.506,10.618,15.334,11.143,15.761,11.578Z"/></svg>